# xmcd
#
# Track frame offsets: 
#        150
#        29062
#        54161
#        80386
#        105858
#        131437
#        152749
#        172312
#        196382
#        223961
#        252296
#
# Disc length: 3608 seconds
#
# Revision: 0
# Processed by: cddbd v1.5.2PL0 Copyright (c) Steve Scherf et al.
# Submitted via: ExactAudioCopyFreeDBPlugin 1.0
#
DISCID=960e160b
DTITLE=Various Artist - TW11 The Tidy High School Romp [CD3 - Mixed By Mar
DTITLE=k Sherry)
DYEAR=2007
DGENRE=Dance
TTITLE0=Carl B - Cursed
TTITLE1=Mark Sherry Vs Dr Willis - Here Come The Drums
TTITLE2=Tocs - 2 (Scott Project Preview Remix)
TTITLE3=Mark Sherry Vs James Allen - The Message (PD's Dirty Tech Tran
TTITLE3=ce Remix)
TTITLE4=Simon Patterson - Panic Attack
TTITLE5=David Forbes - Super Imposed (Mark Sherry's Outburst Mix)
TTITLE6=Ralph Novell - Stardust
TTITLE7=Gleave - Needlework
TTITLE8=Joey V - Chopper Chunk (Mark Sherry's Outburst Mix)
TTITLE9=DJ Machine - Days 1 Week (Mark Sherry's Outburst Mix)
TTITLE10=DJ Seb.B - Mass Noise
EXTD=
EXTT0=
EXTT1=
EXTT2=
EXTT3=
EXTT4=
EXTT5=
EXTT6=
EXTT7=
EXTT8=
EXTT9=
EXTT10=
PLAYORDER=
